<svg width="24" height="24" viewBox="0 0 24 24" fill="none" xmlns="http://www.w3.org/2000/svg">
<g clip-path="url(#clip0_1704_27826)">
<path d="M14.2513 9.41362L14.6249 8.46075L17.4249 7.51925C17.9555 7.34056 18.3934 6.9584 18.6423 6.45685C18.8911 5.95529 18.9305 5.37542 18.7519 4.84481C18.5732 4.31419 18.191 3.8763 17.6895 3.62745C17.1879 3.3786 16.608 3.33918 16.0774 3.51787L6.07442 6.8805L4.73742 5.54875L2.74855 6.21637C2.61605 6.26089 2.49668 6.3376 2.40115 6.43962C2.30561 6.54164 2.23689 6.66578 2.20116 6.80091C2.16542 6.93604 2.16379 7.07792 2.19641 7.21383C2.22903 7.34974 2.29488 7.47543 2.38805 7.57962L5.07692 10.5896C5.29722 10.8359 5.58489 11.0121 5.90433 11.0966C6.22377 11.181 6.56096 11.17 6.87417 11.0647L9.81942 10.0751L9.22267 14.3311" stroke="#649B11" stroke-width="1.5" stroke-linecap="round" stroke-linejoin="round"/>
<path d="M13.2767 4.45908L10.1477 2.30483C10.0398 2.23025 9.91593 2.18192 9.78604 2.16369C9.65615 2.14546 9.52379 2.15783 9.39953 2.19983L7.89366 2.70558C7.75704 2.75137 7.63441 2.83136 7.53744 2.93794C7.44047 3.04453 7.37239 3.17415 7.33968 3.31448C7.30696 3.4548 7.3107 3.60117 7.35054 3.73964C7.39038 3.87812 7.465 4.00409 7.56728 4.10558L9.27528 5.80395" stroke="#649B11" stroke-width="1.5" stroke-linecap="round" stroke-linejoin="round"/>
<path d="M12.8811 20.3079C11.8983 19.3252 11.3462 17.9923 11.3462 16.6024C11.3462 15.2126 11.8983 13.8797 12.8811 12.8969C13.8638 11.9142 15.1967 11.3621 16.5866 11.3621C17.9764 11.3621 19.3093 11.9142 20.2921 12.8969C21.2748 13.8797 21.8269 15.2126 21.8269 16.6024C21.8269 17.9923 21.2748 19.3252 20.2921 20.3079C19.3093 21.2907 17.9764 21.8428 16.5866 21.8428C15.1967 21.8428 13.8638 21.2907 12.8811 20.3079Z" stroke="#649B11" stroke-width="1.5" stroke-linecap="round" stroke-linejoin="round"/>
<path d="M18.9029 16.6025H16.5867M16.5867 16.6025V14.2864M16.5867 16.6025H14.1875M16.5867 16.6025V19" stroke="#649B11" stroke-width="1.5" stroke-linecap="round" stroke-linejoin="round"/>
</g>
<defs>
<clipPath id="clip0_1704_27826">
<rect width="21" height="21" fill="white" transform="translate(1.5 1.5)"/>
</clipPath>
</defs>
</svg>
