<svg width="24" height="24" viewBox="0 0 24 24" fill="none" xmlns="http://www.w3.org/2000/svg">
<path fill-rule="evenodd" clip-rule="evenodd" d="M11.4778 3.5126C11.4787 3.51307 11.4796 3.51354 11.4805 3.51401L15.093 5.38706L17.6498 4.07229C19.3141 3.21836 21.3065 3.85369 22.1457 5.5634C22.9769 7.24738 22.2945 9.3007 20.636 10.1516L20.6317 10.1538L17.894 11.54L16.2943 18.3717C16.1617 18.8952 15.8131 19.358 15.3166 19.6196L15.3056 19.6254L13.6137 20.487C13.3422 20.6317 13.0442 20.7 12.7532 20.7C11.691 20.7 10.8821 19.8032 10.8943 18.7894V15.1187L8.92632 16.1155L8.924 16.1167C7.88339 16.64 6.63002 16.4806 5.75665 15.7141L2.14933 12.583C2.14204 12.5766 2.13486 12.5702 2.12778 12.5636C1.96942 12.417 1.80663 12.2256 1.69028 11.9744C1.24097 11.0428 1.61065 9.90215 2.55386 9.4305C2.56566 9.4246 2.57758 9.41896 2.58962 9.41359L4.48928 8.56586C4.7912 8.43113 5.14269 8.47278 5.40475 8.67435L6.72521 9.69L9.0031 8.51865L7.76565 7.56225C7.54983 7.39314 7.35646 7.16655 7.22727 6.88966C6.77691 5.95793 7.14621 4.8166 8.08946 4.34449L9.75639 3.50927C10.2963 3.2292 10.9388 3.23031 11.4778 3.5126ZM10.7706 7.60976L8.87466 6.14443C8.86811 6.13916 8.86321 6.13405 8.86007 6.13017C8.85879 6.12858 8.85803 6.12749 8.85768 6.12696L8.84825 6.10708C8.81816 6.04579 8.8474 5.97798 8.89516 5.9541L10.5693 5.11527L10.585 5.10724C10.6032 5.09765 10.6246 5.09765 10.6429 5.10724L13.1298 6.39659L10.7706 7.60976ZM18.4722 5.67342C18.4721 5.67346 18.4723 5.67338 18.4722 5.67342L7.04063 11.5519C6.73069 11.7112 6.3566 11.6773 6.08035 11.4649L4.73272 10.4283L3.35088 11.045C3.308 11.0721 3.28365 11.1356 3.31201 11.1934C3.31498 11.1995 3.31789 11.2056 3.32072 11.2117C3.32362 11.2154 3.33029 11.2233 3.34288 11.2354L6.93858 14.3565L6.94309 14.3605C7.26342 14.6422 7.72687 14.7034 8.11434 14.5091C8.11467 14.5089 8.11401 14.5092 8.11434 14.5091L11.3876 12.8511C11.6667 12.7098 11.999 12.7235 12.2655 12.8872C12.5319 13.0509 12.6943 13.3413 12.6943 13.654V18.8107C12.6939 18.8361 12.7036 18.8618 12.7224 18.8816C12.7401 18.9002 12.7518 18.9001 12.7531 18.9C12.7584 18.9 12.7629 18.8994 12.7658 18.8987C12.7669 18.8984 12.7676 18.8982 12.768 18.898L12.788 18.8875L14.4802 18.0257C14.5068 18.0106 14.5356 17.9782 14.5481 17.9341L16.237 10.7214C16.2977 10.4625 16.4696 10.2437 16.7068 10.1236L19.8143 8.55013C19.8149 8.54981 19.8156 8.54949 19.8162 8.54916C20.598 8.14671 20.9281 7.16173 20.5311 6.3589L20.5299 6.35654C20.1389 5.56 19.2503 5.27436 18.4722 5.67342Z" fill="#8270DB"/>
</svg>
