<svg width="24" height="24" viewBox="0 0 24 24" fill="none" xmlns="http://www.w3.org/2000/svg">
<path fill-rule="evenodd" clip-rule="evenodd" d="M12 3.3C7.19786 3.3 3.3 7.19786 3.3 12C3.3 16.8021 7.19786 20.7 12 20.7C16.8021 20.7 20.7 16.8021 20.7 12C20.7 11.5029 21.1029 11.1 21.6 11.1C22.0971 11.1 22.5 11.5029 22.5 12C22.5 17.7963 17.7963 22.5 12 22.5C6.20374 22.5 1.5 17.7963 1.5 12C1.5 6.20374 6.20374 1.5 12 1.5C12.4971 1.5 12.9 1.90294 12.9 2.4C12.9 2.89706 12.4971 3.3 12 3.3ZM20.9636 1.7636C21.3151 1.41213 21.8849 1.41213 22.2364 1.7636C22.5879 2.11508 22.5879 2.68492 22.2364 3.0364L18.9728 6.3H20.64C21.1371 6.3 21.54 6.70294 21.54 7.2C21.54 7.69706 21.1371 8.1 20.64 8.1H16.8C16.3029 8.1 15.9 7.69706 15.9 7.2V3.36C15.9 2.86294 16.3029 2.46 16.8 2.46C17.2971 2.46 17.7 2.86294 17.7 3.36V5.02721L20.9636 1.7636ZM9.05906 9.54V10.3051H9.76138C9.77265 10.3048 9.78391 10.3048 9.79516 10.3051H10.0815C10.1794 10.3051 10.2477 10.2695 10.2981 10.2155C10.3526 10.157 10.4009 10.0585 10.4009 9.92253C10.4009 9.7866 10.3526 9.68806 10.2981 9.6296C10.2477 9.57555 10.1794 9.54 10.0815 9.54H9.05906ZM11.1563 11.8154C11.8057 11.428 12.2009 10.6995 12.2009 9.92253C12.2009 8.77879 11.3446 7.74 10.0815 7.74H8.69907C7.90501 7.74 7.25906 8.38595 7.25906 9.18001V13.44C7.25906 13.9371 7.66201 14.34 8.15906 14.34C8.65612 14.34 9.05906 13.9371 9.05906 13.44V12.1051H9.25331L10.2551 13.882C10.4992 14.315 11.0481 14.4681 11.481 14.224C11.914 13.9799 12.0672 13.431 11.8231 12.998L11.1563 11.8154ZM13.8591 11.94V12.7051H14.8815C14.9794 12.7051 15.0477 12.6695 15.0981 12.6155C15.1526 12.557 15.2009 12.4585 15.2009 12.3225C15.2009 12.1866 15.1526 12.0881 15.0981 12.0296C15.0477 11.9756 14.9794 11.94 14.8815 11.94H13.8591ZM13.8591 14.5051H14.8815C16.1446 14.5051 17.0009 13.4663 17.0009 12.3225C17.0009 11.1788 16.1446 10.14 14.8815 10.14H13.4991C12.705 10.14 12.0591 10.7859 12.0591 11.58V15.84C12.0591 16.3371 12.462 16.74 12.9591 16.74C13.4561 16.74 13.8591 16.3371 13.8591 15.84V14.5051Z" fill="#23A06B"/>
</svg>
