<svg preserveAspectRatio="none" width="100%" height="100%" overflow="visible" style="display: block;" viewBox="0 0 19 19" fill="none" xmlns="http://www.w3.org/2000/svg">
<path id="path" fill-rule="evenodd" clip-rule="evenodd" d="M9.5 0C9.99706 0 10.4 0.402944 10.4 0.9V8.6H18.1C18.5971 8.6 19 9.00294 19 9.5C19 9.99706 18.5971 10.4 18.1 10.4H10.4V18.1C10.4 18.5971 9.99706 19 9.5 19C9.00294 19 8.6 18.5971 8.6 18.1V10.4H0.9C0.402944 10.4 0 9.99706 0 9.5C0 9.00294 0.402944 8.6 0.9 8.6H8.6V0.9C8.6 0.402944 9.00294 0 9.5 0Z" fill="var(--fill-0, white)"/>
</svg>
