<svg width="24" height="24" viewBox="0 0 24 24" fill="none" xmlns="http://www.w3.org/2000/svg">
<path fill-rule="evenodd" clip-rule="evenodd" d="M1.25 6.0001C1.25 5.50304 1.65483 5.1001 2.15421 5.1001H21.8458C22.3452 5.1001 22.75 5.50304 22.75 6.0001C22.75 6.49715 22.3452 6.9001 21.8458 6.9001H2.15421C1.65483 6.9001 1.25 6.49715 1.25 6.0001Z" fill="#758195"/>
<path fill-rule="evenodd" clip-rule="evenodd" d="M4.86682 12.0001C4.86682 11.503 5.27165 11.1001 5.77103 11.1001H18.229C18.7284 11.1001 19.1332 11.503 19.1332 12.0001C19.1332 12.4972 18.7284 12.9001 18.229 12.9001H5.77103C5.27165 12.9001 4.86682 12.4972 4.86682 12.0001Z" fill="#758195"/>
<path fill-rule="evenodd" clip-rule="evenodd" d="M9.68925 18.0001C9.68925 17.503 10.0941 17.1001 10.5935 17.1001H13.4065C13.9059 17.1001 14.3107 17.503 14.3107 18.0001C14.3107 18.4972 13.9059 18.9001 13.4065 18.9001H10.5935C10.0941 18.9001 9.68925 18.4972 9.68925 18.0001Z" fill="#758195"/>
</svg>
