<svg width="24" height="24" viewBox="0 0 24 24" fill="none" xmlns="http://www.w3.org/2000/svg">
<path fill-rule="evenodd" clip-rule="evenodd" d="M4.73807 3.88534C4.09734 4.57535 3.75098 5.61497 3.75098 7V17C3.75098 18.385 4.09734 19.4246 4.73807 20.1147C5.36946 20.7946 6.39393 21.25 8.00098 21.25H16.001C17.608 21.25 18.6325 20.7946 19.2639 20.1147C19.9046 19.4246 20.251 18.385 20.251 17V7C20.251 5.61497 19.9046 4.57535 19.2639 3.88534C18.6325 3.20538 17.608 2.75 16.001 2.75H8.00098C6.39393 2.75 5.36946 3.20538 4.73807 3.88534ZM3.63888 2.86466C4.6325 1.79462 6.10803 1.25 8.00098 1.25H16.001C17.8939 1.25 19.3695 1.79462 20.3631 2.86466C21.3473 3.92465 21.751 5.38503 21.751 7V17C21.751 18.615 21.3473 20.0754 20.3631 21.1353C19.3695 22.2054 17.8939 22.75 16.001 22.75H8.00098C6.10803 22.75 4.6325 22.2054 3.63888 21.1353C2.65461 20.0754 2.25098 18.615 2.25098 17V7C2.25098 5.38503 2.65461 3.92465 3.63888 2.86466ZM8.75 6.25V7.42193H9.67277C9.68216 7.42176 9.69155 7.42176 9.70092 7.42193H10.0025C10.2764 7.42193 10.5227 7.20926 10.5227 6.83597C10.5227 6.46268 10.2764 6.25 10.0025 6.25H8.75ZM10.8644 8.73235C11.578 8.39426 12.0227 7.64629 12.0227 6.83597C12.0227 5.73547 11.2025 4.75 10.0025 4.75H8.56251C7.83892 4.75 7.25 5.33892 7.25 6.06251V10.5C7.25 10.9142 7.58579 11.25 8 11.25C8.41421 11.25 8.75 10.9142 8.75 10.5V8.92193H9.24938L10.3467 10.8683C10.5501 11.2291 11.0075 11.3567 11.3683 11.1533C11.7291 10.9499 11.8567 10.4925 11.6533 10.1317L10.8644 8.73235ZM13.75 8.75V9.92193H15.0025C15.2764 9.92193 15.5227 9.70926 15.5227 9.33597C15.5227 8.96268 15.2764 8.75 15.0025 8.75H13.75ZM13.75 11.4219H15.0025C16.2025 11.4219 17.0227 10.4365 17.0227 9.33597C17.0227 8.23547 16.2025 7.25 15.0025 7.25H13.5625C12.8389 7.25 12.25 7.83892 12.25 8.56251V13C12.25 13.4142 12.5858 13.75 13 13.75C13.4142 13.75 13.75 13.4142 13.75 13V11.4219ZM7 15.75C7 15.3358 7.33579 15 7.75 15H16.25C16.6642 15 17 15.3358 17 15.75C17 16.1642 16.6642 16.5 16.25 16.5H7.75C7.33579 16.5 7 16.1642 7 15.75ZM7 18.25C7 17.8358 7.33579 17.5 7.75 17.5H12.25C12.6642 17.5 13 17.8358 13 18.25C13 18.6642 12.6642 19 12.25 19H7.75C7.33579 19 7 18.6642 7 18.25Z" fill="#0031BE"/>
<path fill-rule="evenodd" clip-rule="evenodd" d="M3.75098 7C3.75098 5.61497 4.09734 4.57535 4.73807 3.88534C5.36946 3.20538 6.39393 2.75 8.00098 2.75H16.001C17.608 2.75 18.6325 3.20538 19.2639 3.88534C19.9046 4.57535 20.251 5.61497 20.251 7V17C20.251 18.385 19.9046 19.4246 19.2639 20.1147C18.6325 20.7946 17.608 21.25 16.001 21.25H8.00098C6.39393 21.25 5.36946 20.7946 4.73807 20.1147C4.09734 19.4246 3.75098 18.385 3.75098 17V7ZM12.0227 6.83597C12.0227 7.64629 11.578 8.39426 10.8644 8.73235L11.6533 10.1317C11.8567 10.4925 11.7291 10.9499 11.3683 11.1533C11.0075 11.3567 10.5501 11.2291 10.3467 10.8683L9.24938 8.92193H8.75V10.5C8.75 10.9142 8.41421 11.25 8 11.25C7.58579 11.25 7.25 10.9142 7.25 10.5V6.06251C7.25 5.33892 7.83892 4.75 8.56251 4.75H10.0025C11.2025 4.75 12.0227 5.73547 12.0227 6.83597ZM15.0025 11.4219H13.75V13C13.75 13.4142 13.4142 13.75 13 13.75C12.5858 13.75 12.25 13.4142 12.25 13V8.56251C12.25 7.83892 12.8389 7.25 13.5625 7.25H15.0025C16.2025 7.25 17.0227 8.23547 17.0227 9.33597C17.0227 10.4365 16.2025 11.4219 15.0025 11.4219ZM7 15.75C7 15.3358 7.33579 15 7.75 15H16.25C16.6642 15 17 15.3358 17 15.75C17 16.1642 16.6642 16.5 16.25 16.5H7.75C7.33579 16.5 7 16.1642 7 15.75ZM7 18.25C7 17.8358 7.33579 17.5 7.75 17.5H12.25C12.6642 17.5 13 17.8358 13 18.25C13 18.6642 12.6642 19 12.25 19H7.75C7.33579 19 7 18.6642 7 18.25Z" fill="#EAECFB"/>
<path d="M13.75 9.92193V8.75H15.0025C15.2764 8.75 15.5227 8.96268 15.5227 9.33597C15.5227 9.70926 15.2764 9.92193 15.0025 9.92193H13.75Z" fill="#EAECFB"/>
<path d="M8.75 7.42193V6.25H10.0025C10.2764 6.25 10.5227 6.46268 10.5227 6.83597C10.5227 7.20926 10.2764 7.42193 10.0025 7.42193H9.70092C9.69155 7.42176 9.68216 7.42176 9.67277 7.42193H8.75Z" fill="#EAECFB"/>
</svg>
