<svg width="24" height="24" viewBox="0 0 24 24" fill="none" xmlns="http://www.w3.org/2000/svg">
<path d="M6.40549 10.7194L4.5586 9.3207L2.5798 10.1902C2.06154 10.4453 1.85423 11.0691 2.10865 11.5794C2.16519 11.7023 2.24999 11.8062 2.35365 11.9007L6.11338 15.114C6.73529 15.6527 7.63047 15.7661 8.37488 15.3975L11.786 13.6964V18.9698C11.7765 19.5274 12.2288 20 12.7848 20C12.945 20 13.1052 19.9622 13.2465 19.8866L15.018 18.9982C15.2913 18.8564 15.4892 18.6013 15.5645 18.3083L17.3266 10.899L20.5681 9.28289C21.8402 8.64025 22.3679 7.08088 21.7271 5.80504C21.0864 4.51975 19.5862 4.04722 18.3141 4.68986L15.2199 6.2565L10.6127 8.5892L6.40549 10.7194Z" fill="#EAECFB"/>
<path d="M15.2199 6.2565L10.6127 8.5892L6.40549 10.7194L4.5586 9.3207L2.5798 10.1902C2.06154 10.4453 1.85423 11.0691 2.10865 11.5794C2.16519 11.7023 2.24999 11.8062 2.35365 11.9007L6.11338 15.114C6.73529 15.6527 7.63047 15.7661 8.37488 15.3975L11.786 13.6964V18.9698C11.7765 19.5274 12.2288 20 12.7848 20C12.945 20 13.1052 19.9622 13.2465 19.8866L15.018 18.9982C15.2913 18.8564 15.4892 18.6013 15.5645 18.3083L17.3266 10.899L20.5681 9.28289C21.8402 8.64025 22.3679 7.08088 21.7271 5.80504C21.0864 4.51975 19.5862 4.04722 18.3141 4.68986L15.2199 6.2565ZM10.6127 8.5892L10.5894 8.56468L8.16768 6.7218C8.04519 6.62729 7.94153 6.50443 7.87557 6.36267C7.62115 5.85233 7.82846 5.22859 8.34672 4.97342L10.09 4.11341C10.3821 3.9622 10.7307 3.9622 11.0228 4.11341L14.5786 5.92852L15.2199 6.2565" stroke="#0031BE" stroke-width="1.5" stroke-linecap="round" stroke-linejoin="round"/>
</svg>
