<svg width="24" height="24" viewBox="0 0 24 24" fill="none" xmlns="http://www.w3.org/2000/svg">
<path fill-rule="evenodd" clip-rule="evenodd" d="M2.31439 2.63989C3.1211 1.73216 4.35318 1.25 6 1.25H18C18.0023 1.25 18.0046 1.25001 18.0068 1.25003C18.0112 1.25001 18.0156 1.25 18.02 1.25H18.0267C19.3092 1.26143 20.4941 1.7647 21.3527 2.599L21.3564 2.6026C22.2084 3.44197 22.75 4.60202 22.75 5.8868V8.23831C22.75 9.17292 22.4417 10.0063 21.8252 10.6054C21.2109 11.2023 20.3644 11.4953 19.42 11.4953H16.75V20.4623C16.75 21.9158 15.0803 22.6552 13.9612 21.8479L13.9588 21.8462L12.2409 20.5966C12.1496 20.5284 12.0013 20.5351 11.9127 20.6212L10.2327 22.2537C9.55161 22.9154 8.44839 22.9154 7.76734 22.2537L7.76572 22.2521L6.10734 20.6309C6.10716 20.6308 6.10751 20.6311 6.10734 20.6309C6.00777 20.5347 5.85466 20.527 5.75172 20.602L4.04462 21.8436C4.04393 21.8442 4.04324 21.8447 4.04254 21.8452C2.91573 22.6722 1.25 21.9178 1.25 20.4623V5.8868C1.25 4.71065 1.52248 3.53097 2.31439 2.63989ZM16.75 9.99529H19.42C20.0556 9.99529 20.4991 9.80246 20.7798 9.52965C21.0583 9.25909 21.25 8.83897 21.25 8.23831V5.8868C21.25 5.03478 20.8924 4.2522 20.3056 3.67307C19.7251 3.10987 18.9121 2.75889 18.0169 2.75C17.2973 2.75164 16.75 3.31458 16.75 3.95311V9.99529ZM15.25 3.9434C15.25 3.51309 15.3529 3.10843 15.5349 2.75H6C4.64682 2.75 3.8789 3.13751 3.43561 3.63632C2.97752 4.15177 2.75 4.91548 2.75 5.8868V20.4623C2.75 20.5487 2.79324 20.6187 2.88025 20.661C2.96847 20.7039 3.0682 20.6998 3.15538 20.6357L3.15884 20.6331L4.86828 19.3897C5.56516 18.8819 6.53221 18.9523 7.15266 19.5552L7.15428 19.5567L8.81266 21.1779C8.81283 21.1781 8.8125 21.1777 8.81266 21.1779C8.9117 21.2736 9.08856 21.2739 9.18734 21.1779L10.8673 19.5454C11.4774 18.9527 12.4461 18.8807 13.1346 19.3918L14.8388 20.6314C14.8391 20.6316 14.8394 20.6318 14.8397 20.632C14.9254 20.6934 15.0275 20.6985 15.1197 20.6537C15.211 20.6094 15.25 20.5396 15.25 20.4623V3.9434ZM5.24561 8.80189C5.24561 8.38768 5.58139 8.05189 5.99561 8.05189H6.00459C6.4188 8.05189 6.75459 8.38768 6.75459 8.80189C6.75459 9.21611 6.4188 9.5519 6.00459 9.5519H5.99561C5.58139 9.5519 5.24561 9.21611 5.24561 8.80189ZM8.25 8.81161C8.25 8.3974 8.58579 8.06161 9 8.06161H12C12.4142 8.06161 12.75 8.3974 12.75 8.81161C12.75 9.22582 12.4142 9.56161 12 9.56161H9C8.58579 9.56161 8.25 9.22582 8.25 8.81161ZM5.24561 12.6887C5.24561 12.2745 5.58139 11.9387 5.99561 11.9387H6.00459C6.4188 11.9387 6.75459 12.2745 6.75459 12.6887C6.75459 13.1029 6.4188 13.4387 6.00459 13.4387H5.99561C5.58139 13.4387 5.24561 13.1029 5.24561 12.6887ZM8.25 12.6984C8.25 12.2842 8.58579 11.9484 9 11.9484H12C12.4142 11.9484 12.75 12.2842 12.75 12.6984C12.75 13.1126 12.4142 13.4484 12 13.4484H9C8.58579 13.4484 8.25 13.1126 8.25 12.6984Z" fill="#0031BE"/>
<path fill-rule="evenodd" clip-rule="evenodd" d="M15.5349 2.75C15.3529 3.10843 15.25 3.51309 15.25 3.9434V20.4623C15.25 20.5396 15.211 20.6094 15.1197 20.6537C15.0275 20.6985 14.9254 20.6934 14.8397 20.632C14.8394 20.6318 14.8391 20.6316 14.8388 20.6314L13.1346 19.3918C12.4461 18.8807 11.4774 18.9527 10.8673 19.5454L9.18734 21.1779C9.08856 21.2739 8.9117 21.2736 8.81266 21.1779L7.15428 19.5567L7.15266 19.5552C6.53221 18.9523 5.56516 18.8819 4.86828 19.3897L3.15884 20.6331L3.15538 20.6357C3.0682 20.6998 2.96847 20.7039 2.88025 20.661C2.79324 20.6187 2.75 20.5487 2.75 20.4623V5.8868C2.75 4.91548 2.97752 4.15177 3.43561 3.63632C3.8789 3.13751 4.64682 2.75 6 2.75H15.5349ZM5.24561 8.80189C5.24561 8.38768 5.58139 8.05189 5.99561 8.05189H6.00459C6.4188 8.05189 6.75459 8.38768 6.75459 8.80189C6.75459 9.21611 6.4188 9.5519 6.00459 9.5519H5.99561C5.58139 9.5519 5.24561 9.21611 5.24561 8.80189ZM8.25 8.81161C8.25 8.3974 8.58579 8.06161 9 8.06161H12C12.4142 8.06161 12.75 8.3974 12.75 8.81161C12.75 9.22582 12.4142 9.56161 12 9.56161H9C8.58579 9.56161 8.25 9.22582 8.25 8.81161ZM5.24561 12.6887C5.24561 12.2745 5.58139 11.9387 5.99561 11.9387H6.00459C6.4188 11.9387 6.75459 12.2745 6.75459 12.6887C6.75459 13.1029 6.4188 13.4387 6.00459 13.4387H5.99561C5.58139 13.4387 5.24561 13.1029 5.24561 12.6887ZM8.25 12.6984C8.25 12.2842 8.58579 11.9484 9 11.9484H12C12.4142 11.9484 12.75 12.2842 12.75 12.6984C12.75 13.1126 12.4142 13.4484 12 13.4484H9C8.58579 13.4484 8.25 13.1126 8.25 12.6984Z" fill="#EAECFB"/>
</svg>
