<svg width="24" height="24" viewBox="0 0 24 24" fill="none" xmlns="http://www.w3.org/2000/svg">
<path fill-rule="evenodd" clip-rule="evenodd" d="M4.66478 4.34095C5.21136 2.99695 6.1351 1.5 7.944 1.5H16.056C17.8649 1.5 18.7886 2.99695 19.3352 4.34095C19.6242 5.05165 19.8594 5.84435 20.0759 6.61021C20.1209 6.76929 20.1649 6.92696 20.2086 7.08306C20.3798 7.69517 20.5442 8.28316 20.7277 8.8369C20.7306 8.84549 20.7333 8.85412 20.7359 8.86278L22.0466 13.2579C22.095 13.42 22.1337 13.5879 22.1601 13.7603C22.1619 13.7715 22.1636 13.7828 22.1651 13.7942C22.1919 13.9808 22.2042 14.1725 22.1987 14.3677C22.145 16.3042 21.7354 18.2941 20.7831 19.8307C19.8033 21.4116 18.2468 22.5 16.056 22.5H7.944C5.75317 22.5 4.1967 21.4116 3.21692 19.8307C2.26455 18.2941 1.85497 16.3042 1.80125 14.3677C1.79596 14.1769 1.8076 13.9894 1.83313 13.8067C1.83453 13.7956 1.83613 13.7845 1.83793 13.7735C1.86438 13.5965 1.90378 13.4241 1.95335 13.2579L3.26413 8.86278C3.26672 8.85412 3.26943 8.84549 3.27228 8.8369C3.45577 8.28316 3.62021 7.69518 3.79139 7.08307C3.83504 6.92696 3.87914 6.76929 3.9241 6.61021C4.14056 5.84435 4.37575 5.05165 4.66478 4.34095ZM3.62357 14.82C3.72418 16.3853 4.09213 17.8261 4.74689 18.8825C5.44372 20.0068 6.45756 20.7 7.944 20.7H16.056C17.5424 20.7 18.5563 20.0068 19.2531 18.8825C19.9092 17.8239 20.2773 16.3794 20.377 14.8104H17.0008C16.6222 14.8104 16.2731 15.0252 16.0984 15.3766C16.0798 15.4142 16.0585 15.4504 16.0347 15.485L15.2176 16.6764C14.7329 17.5953 13.7837 18.18 12.7348 18.18H11.2747C10.9898 18.18 9.57228 18.1766 8.78338 16.6875L7.96528 15.4946C7.94153 15.46 7.92024 15.4238 7.90155 15.3862C7.72688 15.0348 7.37779 14.82 6.99919 14.82H3.62357ZM20.0945 13.0104L19.0148 9.39007C18.8182 8.79545 18.6404 8.15931 18.4694 7.54755C18.4271 7.39648 18.3853 7.24689 18.3438 7.09979C18.1278 6.33565 17.9156 5.62835 17.6678 5.01905C17.1408 3.72305 16.633 3.3 16.056 3.3H7.944C7.36702 3.3 6.85923 3.72305 6.33217 5.01905C6.08438 5.62835 5.87222 6.33565 5.65624 7.09979C5.61466 7.2469 5.57284 7.3965 5.53061 7.54758C5.3596 8.15933 5.18179 8.79545 4.98523 9.39006L3.90265 13.02H6.99919C8.04805 13.02 8.99724 13.6047 9.48198 14.5236L10.2991 15.715C10.3216 15.7478 10.3419 15.7821 10.3599 15.8176C10.5185 16.1311 10.7123 16.2522 10.8611 16.311C11.0309 16.3781 11.1855 16.38 11.2747 16.38H12.7348C13.1134 16.38 13.4625 16.1652 13.6372 15.8138C13.6559 15.7762 13.6772 15.74 13.7009 15.7054L14.518 14.514C15.0027 13.5951 15.9519 13.0104 17.0008 13.0104H20.0945ZM9.42988 7.2C9.42988 6.70294 9.83282 6.3 10.3299 6.3H13.6701C14.1672 6.3 14.5701 6.70294 14.5701 7.2C14.5701 7.69706 14.1672 8.1 13.6701 8.1H10.3299C9.83282 8.1 9.42988 7.69706 9.42988 7.2ZM8.71412 10.08C8.71412 9.58294 9.11706 9.18 9.61412 9.18H14.3859C14.8829 9.18 15.2859 9.58294 15.2859 10.08C15.2859 10.5771 14.8829 10.98 14.3859 10.98H9.61412C9.11706 10.98 8.71412 10.5771 8.71412 10.08Z" fill="#758195"/>
</svg>
