<svg preserveAspectRatio="none" width="100%" height="100%" overflow="visible" style="display: block;" viewBox="0 0 77.5281 13" fill="none" xmlns="http://www.w3.org/2000/svg">
<g id="R accessories">
<path id="Cellular Connection" d="M2.13379 7.40039C2.72262 7.40066 3.2001 7.91493 3.2002 8.5498V10.8496C3.2002 11.4846 2.72268 11.9997 2.13379 12H1.06641C0.477422 11.9998 0 11.4846 0 10.8496V8.5498C9.79152e-05 7.91486 0.477483 7.40054 1.06641 7.40039H2.13379ZM7.43359 5C8.02258 5.00015 8.5 5.52275 8.5 6.16699V10.833C8.5 11.4772 8.02258 11.9998 7.43359 12H6.36621C5.77732 11.9997 5.2998 11.4772 5.2998 10.833V6.16699C5.2998 5.52283 5.77732 5.00027 6.36621 5H7.43359ZM12.833 2.40039C13.422 2.40039 13.9003 2.91564 13.9004 3.55176V10.8477C13.9004 11.4839 13.4221 12 12.833 12H11.7666C11.1775 12 10.7002 11.4839 10.7002 10.8477V3.55176C10.7003 2.91566 11.1776 2.40043 11.7666 2.40039H12.833ZM18.1338 1.49508e-08C18.7227 0.000259635 19.2002 0.50384 19.2002 1.125V10.875C19.2002 11.4962 18.7227 11.9997 18.1338 12H17.0664C16.4774 11.9999 16 11.4962 16 10.875V1.125C16 0.503771 16.4774 0.000148457 17.0664 1.49508e-08H18.1338Z" fill="var(--fill-0, black)"/>
<path id="Wifi" d="M32.3123 8.95898C33.6909 7.68034 35.7102 7.68016 37.0887 8.95898C37.1579 9.02774 37.1981 9.12508 37.2 9.22753C37.2019 9.33007 37.1652 9.42913 37.0984 9.50097L34.9393 11.8906C34.876 11.9606 34.7899 12 34.7 12C34.6102 12 34.524 11.9606 34.4607 11.8906L32.3016 9.50097C32.2349 9.42907 32.198 9.33008 32.2 9.22753C32.202 9.12499 32.2429 9.02771 32.3123 8.95898ZM29.3084 6.11034C32.3469 3.29648 37.0531 3.29648 40.0916 6.11034C40.1601 6.17631 40.199 6.26741 40.2 6.3623C40.2009 6.45701 40.1635 6.54798 40.0965 6.61523L38.8201 7.89941C38.6886 8.03051 38.4756 8.03383 38.3406 7.90624C37.3429 7.00679 36.045 6.50878 34.699 6.50878C33.3538 6.50934 32.0565 7.00732 31.0594 7.90624C30.9244 8.03384 30.7114 8.03051 30.5799 7.89941L29.3035 6.61523C29.2365 6.54807 29.1992 6.45699 29.2 6.3623C29.2009 6.26738 29.2399 6.17631 29.3084 6.11034ZM26.3074 3.19335C30.9992 -1.06448 38.4007 -1.06442 43.0926 3.19335C43.1605 3.25661 43.1994 3.34337 43.2 3.43358C43.2005 3.52372 43.1636 3.61083 43.0965 3.6748L41.8094 4.90429C41.6768 5.03049 41.4616 5.03147 41.327 4.90722C39.5394 3.29788 37.1665 2.40048 34.7 2.40038C32.2334 2.40049 29.8608 3.29781 28.0731 4.90722C27.9385 5.03166 27.7231 5.03068 27.5906 4.90429L26.3035 3.6748C26.2365 3.6108 26.1994 3.52371 26.2 3.43358C26.2006 3.34337 26.2395 3.25656 26.3074 3.19335Z" fill="var(--fill-0, black)"/>
<g id="Battery">
<rect id="Border" opacity="0.35" x="50.7" y="0.5" width="24" height="12" rx="3" stroke="var(--stroke-0, black)"/>
<path id="Cap" opacity="0.4" d="M76.2 4.66669V8.66669C77.0047 8.32791 77.5281 7.53982 77.5281 6.66669C77.5281 5.79355 77.0047 5.00546 76.2 4.66669" fill="var(--fill-0, black)"/>
<rect id="Capacity" x="52.2" y="2" width="21" height="9" rx="1.33333" fill="var(--fill-0, black)"/>
</g>
</g>
</svg>
