<svg width="24" height="24" viewBox="0 0 24 24" fill="none" xmlns="http://www.w3.org/2000/svg">
<path fill-rule="evenodd" clip-rule="evenodd" d="M5.10522 4.33468C4.52727 4.95279 4.1999 5.89945 4.1999 7.2V16.8C4.1999 18.1006 4.52727 19.0472 5.10522 19.6653C5.67287 20.2724 6.61129 20.7 8.13324 20.7H15.8666C17.3885 20.7 18.3269 20.2724 18.8946 19.6653C19.4725 19.0472 19.7999 18.1006 19.7999 16.8V7.2C19.7999 5.89945 19.4725 4.95279 18.8946 4.33468C18.3269 3.72757 17.3885 3.3 15.8666 3.3H8.13324C6.61129 3.3 5.67287 3.72757 5.10522 4.33468ZM3.79042 3.10532C4.7936 2.03243 6.27184 1.5 8.13324 1.5H15.8666C17.728 1.5 19.2062 2.03243 20.2094 3.10532C21.2023 4.16721 21.5999 5.62055 21.5999 7.2V16.8C21.5999 18.3794 21.2023 19.8328 20.2094 20.8947C19.2062 21.9676 17.728 22.5 15.8666 22.5H8.13324C6.27184 22.5 4.7936 21.9676 3.79042 20.8947C2.79754 19.8328 2.3999 18.3794 2.3999 16.8V7.2C2.3999 5.62055 2.79754 4.16721 3.79042 3.10532ZM9.03229 6.66V7.42506H9.74598C9.75717 7.42485 9.76835 7.42485 9.77952 7.42506H10.0681C10.1706 7.42506 10.2416 7.3878 10.2929 7.33318C10.348 7.2744 10.3959 7.1766 10.3959 7.04253C10.3959 6.90846 10.348 6.81066 10.2929 6.75187C10.2416 6.69725 10.1706 6.66 10.0681 6.66H9.03229ZM11.1454 8.93619C11.7968 8.55009 12.1959 7.82329 12.1959 7.04253C12.1959 5.89274 11.3304 4.86 10.0681 4.86H8.67605C7.88581 4.86 7.23229 5.50009 7.23229 6.30001V10.56C7.23229 11.0571 7.63524 11.46 8.13229 11.46C8.62935 11.46 9.03229 11.0571 9.03229 10.56V9.22506H9.23958L10.2496 11.0043C10.495 11.4366 11.0443 11.5881 11.4766 11.3427C11.9089 11.0973 12.0604 10.548 11.815 10.1157L11.1454 8.93619ZM13.8656 9.06V9.82506H14.9014C15.004 9.82506 15.0749 9.7878 15.1262 9.73318C15.1814 9.6744 15.2293 9.5766 15.2293 9.44253C15.2293 9.30846 15.1814 9.21066 15.1262 9.15187C15.0749 9.09725 15.004 9.06 14.9014 9.06H13.8656ZM13.8656 11.6251H14.9014C16.1638 11.6251 17.0293 10.5923 17.0293 9.44253C17.0293 8.29274 16.1638 7.26 14.9014 7.26H13.5094C12.7191 7.26 12.0656 7.90009 12.0656 8.70001V12.96C12.0656 13.4571 12.4686 13.86 12.9656 13.86C13.4627 13.86 13.8656 13.4571 13.8656 12.96V11.6251ZM6.99063 15.6C6.99063 15.1029 7.39357 14.7 7.89063 14.7H16.1073C16.6043 14.7 17.0073 15.1029 17.0073 15.6C17.0073 16.0971 16.6043 16.5 16.1073 16.5H7.89063C7.39357 16.5 6.99063 16.0971 6.99063 15.6ZM6.99063 18C6.99063 17.5029 7.39357 17.1 7.89063 17.1H12.2406C12.7377 17.1 13.1406 17.5029 13.1406 18C13.1406 18.4971 12.7377 18.9 12.2406 18.9H7.89063C7.39357 18.9 6.99063 18.4971 6.99063 18Z" fill="#E46910"/>
</svg>
