<svg width="24" height="24" viewBox="0 0 24 24" fill="none" xmlns="http://www.w3.org/2000/svg">
<path fill-rule="evenodd" clip-rule="evenodd" d="M3.79054 3.10532C4.79372 2.03243 6.27197 1.5 8.13336 1.5H15.8667C17.7281 1.5 19.2063 2.03243 20.2095 3.10532C21.2024 4.16721 21.6 5.62055 21.6 7.2V16.8C21.6 18.3794 21.2024 19.8328 20.2095 20.8947C19.2063 21.9676 17.7281 22.5 15.8667 22.5H8.13336C6.27197 22.5 4.79372 21.9676 3.79054 20.8947C2.79766 19.8328 2.40002 18.3794 2.40002 16.8V7.2C2.40002 5.62055 2.79766 4.16721 3.79054 3.10532ZM9.03241 6.66V7.42506H9.7461C9.75729 7.42485 9.76847 7.42485 9.77964 7.42506H10.0682C10.1707 7.42506 10.2417 7.3878 10.293 7.33318C10.3482 7.2744 10.3961 7.1766 10.3961 7.04253C10.3961 6.90846 10.3482 6.81066 10.293 6.75187C10.2417 6.69725 10.1707 6.66 10.0682 6.66H9.03241ZM11.1455 8.93619C11.797 8.55009 12.1961 7.82329 12.1961 7.04253C12.1961 5.89274 11.3306 4.86 10.0682 4.86H8.67618C7.88593 4.86 7.23241 5.50009 7.23241 6.30001V10.56C7.23241 11.0571 7.63536 11.46 8.13241 11.46C8.62947 11.46 9.03241 11.0571 9.03241 10.56V9.22506H9.2397L10.2497 11.0043C10.4951 11.4366 11.0445 11.5881 11.4767 11.3427C11.909 11.0973 12.0605 10.548 11.8151 10.1157L11.1455 8.93619ZM13.8657 9.06V9.82506H14.9015C15.0041 9.82506 15.0751 9.7878 15.1263 9.73318C15.1815 9.6744 15.2294 9.5766 15.2294 9.44253C15.2294 9.30846 15.1815 9.21066 15.1263 9.15187C15.0751 9.09725 15.0041 9.06 14.9015 9.06H13.8657ZM13.8657 11.6251H14.9015C16.1639 11.6251 17.0294 10.5923 17.0294 9.44253C17.0294 8.29274 16.1639 7.26 14.9015 7.26H13.5095C12.7193 7.26 12.0657 7.90009 12.0657 8.70001V12.96C12.0657 13.4571 12.4687 13.86 12.9657 13.86C13.4628 13.86 13.8657 13.4571 13.8657 12.96V11.6251ZM6.99075 15.6C6.99075 15.1029 7.39369 14.7 7.89075 14.7H16.1074C16.6045 14.7 17.0074 15.1029 17.0074 15.6C17.0074 16.0971 16.6045 16.5 16.1074 16.5H7.89075C7.39369 16.5 6.99075 16.0971 6.99075 15.6ZM6.99075 18C6.99075 17.5029 7.39369 17.1 7.89075 17.1H12.2407C12.7378 17.1 13.1407 17.5029 13.1407 18C13.1407 18.4971 12.7378 18.9 12.2407 18.9H7.89075C7.39369 18.9 6.99075 18.4971 6.99075 18Z" fill="#4B61DC"/>
</svg>
