<svg width="24" height="24" viewBox="0 0 24 24" fill="none" xmlns="http://www.w3.org/2000/svg">
<path fill-rule="evenodd" clip-rule="evenodd" d="M3.30309 7.76745H20.697C20.6686 6.3198 20.4414 5.69991 20.1157 5.38061C19.7606 5.03263 19.0452 4.8 17.3281 4.8H6.66246C4.95052 4.8 4.23771 5.03253 3.88387 5.38002C3.55863 5.69942 3.33156 6.3198 3.30309 7.76745ZM22.5001 8.08585C22.5001 6.41632 22.3086 5.0096 21.3757 4.09516C20.4491 3.18691 19.0285 3 17.3281 3H6.66246C4.96641 3 3.54802 3.187 2.62266 4.09575C1.6916 5.01009 1.50006 6.41624 1.50006 8.08585V15.9236C1.50006 17.5928 1.69143 18.9997 2.62327 19.9131C3.54934 20.8208 4.96812 21.0045 6.66332 20.9999H17.3377C19.0337 20.9999 20.4521 20.8129 21.3775 19.9042C22.3085 18.9898 22.5001 17.5837 22.5001 15.9141V8.08585ZM20.7001 9.56745V15.9141C20.7001 17.5912 20.4644 18.278 20.1163 18.6199C19.7624 18.9674 19.0496 19.1999 17.3377 19.1999L6.66246 19.1999L6.65994 19.1999C4.94787 19.2047 4.23608 18.9735 3.88326 18.6276C3.53589 18.2872 3.30006 17.6012 3.30006 15.9236V9.56745H20.7001ZM5.3402 16.2954C5.3402 15.7983 5.74314 15.3954 6.2402 15.3954H8.1602C8.65725 15.3954 9.0602 15.7983 9.0602 16.2954C9.0602 16.7925 8.65725 17.1954 8.1602 17.1954H6.2402C5.74314 17.1954 5.3402 16.7925 5.3402 16.2954ZM9.6602 16.2954C9.6602 15.7983 10.0631 15.3954 10.5602 15.3954H14.4002C14.8973 15.3954 15.3002 15.7983 15.3002 16.2954C15.3002 16.7925 14.8973 17.1954 14.4002 17.1954H10.5602C10.0631 17.1954 9.6602 16.7925 9.6602 16.2954Z" fill="#758195"/>
</svg>
