<svg width="24" height="24" viewBox="0 0 24 24" fill="none" xmlns="http://www.w3.org/2000/svg">
<path fill-rule="evenodd" clip-rule="evenodd" d="M22.5 9.56744H1.5V15.9236C1.5 17.5928 1.69137 18.9997 2.6232 19.9131C3.54928 20.8208 4.96806 21.0045 6.66326 20.9999H17.3376C19.0337 20.9999 20.452 20.8129 21.3774 19.9042C22.3085 18.9898 22.5 17.5837 22.5 15.9141V9.56744ZM6.24013 15.3954C5.74308 15.3954 5.34013 15.7983 5.34013 16.2954C5.34013 16.7925 5.74308 17.1954 6.24013 17.1954H8.16013C8.65719 17.1954 9.06013 16.7925 9.06013 16.2954C9.06013 15.7983 8.65719 15.3954 8.16013 15.3954H6.24013ZM10.5601 15.3954C10.0631 15.3954 9.66014 15.7983 9.66014 16.2954C9.66014 16.7925 10.0631 17.1954 10.5601 17.1954H14.4001C14.8972 17.1954 15.3001 16.7925 15.3001 16.2954C15.3001 15.7983 14.8972 15.3954 14.4001 15.3954H10.5601Z" fill="#4B61DC"/>
<path d="M21.3756 4.09516C22.2486 4.95087 22.4723 6.23763 22.4975 7.76744H1.50252C1.52766 6.23763 1.75135 4.95136 2.62259 4.09575C3.54796 3.187 4.96634 3 6.6624 3H17.328C19.0284 3 20.449 3.18691 21.3756 4.09516Z" fill="#4B61DC"/>
</svg>
