<svg width="24" height="24" viewBox="0 0 24 24" fill="none" xmlns="http://www.w3.org/2000/svg">
<path fill-rule="evenodd" clip-rule="evenodd" d="M19.6201 11.3784C19.6201 11.3962 19.6201 11.4141 19.6201 11.432C19.62 11.4837 19.62 11.5361 19.62 11.5892V15.0188C19.62 16.3184 19.6201 17.3844 19.5065 18.2269C19.3875 19.1094 19.1293 19.8801 18.512 20.4957C17.8951 21.1111 17.1234 21.3682 16.2398 21.4867C15.3955 21.6 14.3272 21.5999 13.024 21.5999H10.976C9.67282 21.5999 8.60446 21.6 7.76024 21.4867C6.87659 21.3682 6.1049 21.1111 5.48795 20.4957C4.87069 19.8801 4.61246 19.1094 4.49351 18.2269C4.37994 17.3844 4.37997 16.3184 4.38 15.0189L4.38 11.5892C4.38 11.5361 4.37996 11.4837 4.37993 11.432C4.37991 11.4141 4.3799 11.3962 4.37989 11.3784L3.03558 12.7193C2.68366 13.0703 2.11381 13.0695 1.76279 12.7176C1.41177 12.3657 1.4125 11.7959 1.76442 11.4448L6.00974 7.2104C6.07796 7.14204 6.14808 7.0722 6.22004 7.00054C6.25671 6.964 6.29387 6.927 6.33149 6.88947L8.69158 4.53543C9.29527 3.93323 9.81128 3.41849 10.2791 3.06248C10.7787 2.68228 11.3272 2.3999 12 2.3999C12.6728 2.3999 13.2213 2.68228 13.7209 3.06248C14.1887 3.41849 14.7047 3.93322 15.3084 4.53542L17.6685 6.88948C17.7061 6.927 17.7433 6.964 17.78 7.00053C17.852 7.07229 17.9222 7.14222 17.9905 7.21066L22.2356 11.4448C22.5875 11.7959 22.5882 12.3657 22.2372 12.7176C21.8862 13.0695 21.3163 13.0703 20.9644 12.7193L19.6201 11.3784Z" fill="#4B61DC"/>
</svg>
