<svg width="24" height="24" viewBox="0 0 24 24" fill="none" xmlns="http://www.w3.org/2000/svg">
<path fill-rule="evenodd" clip-rule="evenodd" d="M3.79054 3.10532C4.79372 2.03243 6.27197 1.5 8.13336 1.5H15.8667C17.7281 1.5 19.2063 2.03243 20.2095 3.10532C21.2024 4.16721 21.6 5.62055 21.6 7.2V16.8C21.6 18.3794 21.2024 19.8328 20.2095 20.8947C19.2063 21.9676 17.7281 22.5 15.8667 22.5H8.13336C6.27197 22.5 4.79372 21.9676 3.79054 20.8947C2.79766 19.8328 2.40002 18.3794 2.40002 16.8V7.2C2.40002 5.62055 2.79766 4.16721 3.79054 3.10532ZM14.4167 3.9C14.9137 3.9 15.3167 4.30294 15.3167 4.8V6.72C15.3167 7.27308 15.7779 7.74 16.35 7.74H18.2834C18.7804 7.74 19.1834 8.14294 19.1834 8.64C19.1834 9.13706 18.7804 9.54 18.2834 9.54H16.35C14.7955 9.54 13.5167 8.27892 13.5167 6.72V4.8C13.5167 4.30294 13.9196 3.9 14.4167 3.9ZM7.23336 12.96C7.23336 12.4629 7.6363 12.06 8.13336 12.06H12C12.4971 12.06 12.9 12.4629 12.9 12.96C12.9 13.4571 12.4971 13.86 12 13.86H8.13336C7.6363 13.86 7.23336 13.4571 7.23336 12.96ZM7.23336 16.8C7.23336 16.3029 7.6363 15.9 8.13336 15.9H15.8667C16.3637 15.9 16.7667 16.3029 16.7667 16.8C16.7667 17.2971 16.3637 17.7 15.8667 17.7H8.13336C7.6363 17.7 7.23336 17.2971 7.23336 16.8Z" fill="#4B61DC"/>
</svg>
