<svg width="24" height="24" viewBox="0 0 24 24" fill="none" xmlns="http://www.w3.org/2000/svg">
<path fill-rule="evenodd" clip-rule="evenodd" d="M11.3692 4.49487C11.0091 4.7689 10.5783 5.19588 9.92029 5.85219L7.60264 8.1639C6.71811 9.04616 6.46491 9.32127 6.33041 9.64517C6.196 9.96882 6.18 10.3414 6.18 11.5892V14.9547C6.18 16.3343 6.18192 17.2783 6.27738 17.9865C6.36931 18.6685 6.53285 18.9956 6.75911 19.2213C6.9857 19.4473 7.31459 19.6109 7.99948 19.7027C8.71002 19.798 9.65698 19.7999 11.04 19.7999H12.96C14.343 19.7999 15.29 19.798 16.0005 19.7027C16.6854 19.6109 17.0143 19.4473 17.2409 19.2213C17.4672 18.9956 17.6307 18.6685 17.7226 17.9865C17.8181 17.2783 17.82 16.3343 17.82 14.9547V11.5892C17.82 10.3414 17.804 9.96882 17.6696 9.64517C17.5356 9.3224 17.2837 9.04808 16.4066 8.1731C16.4035 8.17004 16.4004 8.16697 16.3974 8.1639L14.0797 5.85219C13.4217 5.19588 12.9909 4.7689 12.6308 4.49487C12.2916 4.23671 12.1225 4.1999 12 4.1999C11.8775 4.1999 11.7084 4.23671 11.3692 4.49487ZM19.6201 11.3784C19.6201 11.3962 19.6201 11.4141 19.6201 11.432C19.62 11.4837 19.62 11.5361 19.62 11.5892V15.0188C19.62 16.3184 19.6201 17.3844 19.5065 18.2269C19.3875 19.1094 19.1293 19.8801 18.512 20.4957C17.8951 21.1111 17.1234 21.3682 16.2398 21.4867C15.3955 21.6 14.3272 21.5999 13.024 21.5999H10.976C9.67282 21.5999 8.60446 21.6 7.76024 21.4867C6.87659 21.3682 6.1049 21.1111 5.48795 20.4957C4.87069 19.8801 4.61246 19.1094 4.49351 18.2269C4.37994 17.3844 4.37997 16.3184 4.38 15.0189L4.38 11.5892C4.38 11.5361 4.37996 11.4837 4.37993 11.432C4.37991 11.4141 4.3799 11.3962 4.37989 11.3784L3.03558 12.7193C2.68366 13.0703 2.11381 13.0695 1.76279 12.7176C1.41177 12.3657 1.4125 11.7959 1.76442 11.4448L6.00974 7.2104C6.07796 7.14204 6.14808 7.0722 6.22004 7.00054C6.25671 6.964 6.29387 6.927 6.33149 6.88947L8.69158 4.53543C9.29527 3.93323 9.81128 3.41849 10.2791 3.06248C10.7787 2.68228 11.3272 2.3999 12 2.3999C12.6728 2.3999 13.2213 2.68228 13.7209 3.06248C14.1887 3.41849 14.7047 3.93322 15.3084 4.53542L17.6685 6.88948C17.7061 6.927 17.7433 6.964 17.78 7.00053C17.852 7.07229 17.9222 7.14222 17.9905 7.21066L22.2356 11.4448C22.5875 11.7959 22.5882 12.3657 22.2372 12.7176C21.8862 13.0695 21.3163 13.0703 20.9644 12.7193L19.6201 11.3784Z" fill="#758195"/>
</svg>
