<svg width="24" height="24" viewBox="0 0 24 24" fill="none" xmlns="http://www.w3.org/2000/svg">
<path d="M8.61008 12.6705C8.61008 12.1734 9.01303 11.7705 9.51008 11.7705H12.3001C12.7972 11.7705 13.2001 12.1734 13.2001 12.6705C13.2001 13.1675 12.7972 13.5705 12.3001 13.5705H9.51008C9.01303 13.5705 8.61008 13.1675 8.61008 12.6705Z" fill="#6577E2"/>
<path d="M9.51008 8.03906C9.01303 8.03906 8.61008 8.44201 8.61008 8.93906C8.61008 9.43612 9.01303 9.83906 9.51008 9.83906H12.3001C12.7972 9.83906 13.2001 9.43612 13.2001 8.93906C13.2001 8.44201 12.7972 8.03906 12.3001 8.03906H9.51008Z" fill="#6577E2"/>
<path d="M5.51597 12.661C5.51597 11.9983 6.05323 11.461 6.71597 11.461H6.72432C7.38706 11.461 7.92432 11.9983 7.92432 12.661C7.92432 13.3238 7.38706 13.861 6.72432 13.861H6.71597C6.05323 13.861 5.51597 13.3238 5.51597 12.661Z" fill="#6577E2"/>
<path d="M6.71597 7.72976C6.05323 7.72976 5.51597 8.26702 5.51597 8.92976C5.51597 9.5925 6.05323 10.1298 6.71597 10.1298H6.72432C7.38706 10.1298 7.92432 9.5925 7.92432 8.92976C7.92432 8.26702 7.38706 7.72976 6.72432 7.72976H6.71597Z" fill="#6577E2"/>
<path fill-rule="evenodd" clip-rule="evenodd" d="M6.72012 1.5C5.14 1.5 3.92854 1.97995 3.1318 2.90537C2.35674 3.80563 2.1001 4.98367 2.1001 6.13133V20.1238C2.1001 21.6296 3.81477 22.5094 5.03039 21.5884L5.03263 21.5867L6.61947 20.3952C6.62363 20.3921 6.62897 20.3902 6.62897 20.3902C6.63163 20.3895 6.63505 20.389 6.63913 20.3893C6.6432 20.3896 6.64761 20.3907 6.6521 20.3927C6.65616 20.3945 6.66209 20.3982 6.66867 20.4048L8.21057 21.9607L8.21248 21.9626C8.92687 22.6791 10.0934 22.6791 10.8078 21.9626L12.3702 20.3954C12.3713 20.3943 12.3723 20.3935 12.3734 20.3927C12.3745 20.3919 12.3757 20.3913 12.3769 20.3908L12.3804 20.3895C12.3823 20.3889 12.3843 20.3886 12.3864 20.3884L12.3892 20.3884L12.3921 20.3887L13.9918 21.5898L13.9946 21.5919C15.2011 22.4903 16.9202 21.6303 16.9202 20.1238V11.6955H19.2007C20.1289 11.6955 20.974 11.3969 21.5888 10.7803C22.2033 10.1639 22.5001 9.3176 22.5001 8.38878V6.13133C22.5001 4.8556 21.9791 3.69978 21.1537 2.86039L21.1494 2.85598C20.3155 2.01962 19.1606 1.51157 17.907 1.50004L17.8987 1.5L17.8869 1.50002L17.8802 1.5H6.72012ZM16.9202 4.25785C16.9295 3.73172 17.3639 3.30202 17.8949 3.30001C18.6658 3.30829 19.3682 3.62002 19.8725 4.12466C20.385 4.64699 20.7001 5.35592 20.7001 6.13133V8.38878C20.7001 8.93383 20.5319 9.29087 20.3141 9.5094C20.0965 9.72765 19.7419 9.89548 19.2007 9.89548H16.9202V4.26566L16.9202 4.25785ZM15.1204 4.23199C15.1243 3.90494 15.1855 3.59103 15.2943 3.3H6.72012C5.51023 3.3 4.86167 3.65493 4.4959 4.07978C4.10846 4.5298 3.9001 5.21742 3.9001 6.13133V20.1238C3.9001 20.1353 3.90215 20.1429 3.90215 20.1429L3.90379 20.1466C3.90512 20.1487 3.90928 20.1536 3.9174 20.1577C3.92113 20.1596 3.92451 20.1606 3.92705 20.1611L3.92974 20.1615C3.92974 20.1615 3.93547 20.1596 3.94359 20.1535L3.94772 20.1503L5.53737 18.9568C6.2726 18.4042 7.29588 18.4844 7.94339 19.1339L7.9453 19.1358L9.4872 20.6917C9.49011 20.6946 9.49286 20.6963 9.49555 20.6974C9.49899 20.6988 9.50403 20.7 9.51014 20.7C9.51626 20.7 9.5213 20.6988 9.52473 20.6974C9.52753 20.6963 9.53003 20.6948 9.53309 20.6917L11.0955 19.1246C11.7335 18.4846 12.7586 18.4023 13.4862 18.9593L15.0697 20.1482C15.0768 20.1534 15.0818 20.1555 15.0818 20.1555L15.0835 20.1559C15.0835 20.1559 15.0929 20.1557 15.1029 20.1507C15.1129 20.1457 15.1183 20.1386 15.1183 20.1386L15.1189 20.1374C15.1189 20.1374 15.1202 20.1329 15.1202 20.1238V10.8103L15.1201 10.7955V4.27499L15.1204 4.23199Z" fill="#6577E2"/>
</svg>
