<svg width="24" height="24" viewBox="0 0 24 24" fill="none" xmlns="http://www.w3.org/2000/svg">
<path fill-rule="evenodd" clip-rule="evenodd" d="M3.92918 3.92934C3.55412 4.30451 3.3 4.88151 3.3 5.68008V7.68008C3.3 8.17714 2.89706 8.58008 2.4 8.58008C1.90294 8.58008 1.5 8.17714 1.5 7.68008V5.68008C1.5 4.48665 1.88956 3.42361 2.65619 2.65674C3.42286 1.88984 4.48579 1.5 5.67938 1.5H7.67938C8.17643 1.5 8.57938 1.90294 8.57938 2.4C8.57938 2.89706 8.17643 3.3 7.67938 3.3H5.67938C4.88096 3.3 4.30421 3.5542 3.92918 3.92934ZM15.42 2.4C15.42 1.90294 15.8229 1.5 16.32 1.5H18.32C19.5136 1.5 20.5766 1.88983 21.3434 2.65665C22.1102 3.42347 22.5 4.48652 22.5 5.68008V7.68008C22.5 8.17714 22.0971 8.58008 21.6 8.58008C21.1029 8.58008 20.7 8.17714 20.7 7.68008V5.68008C20.7 4.88163 20.4458 4.30465 20.0706 3.92942C19.6954 3.55421 19.1184 3.3 18.32 3.3H16.32C15.8229 3.3 15.42 2.89706 15.42 2.4ZM6.3 7.68C6.3 7.18294 6.70294 6.78 7.2 6.78H11.04C11.5371 6.78 11.94 7.18294 11.94 7.68C11.94 8.17706 11.5371 8.58 11.04 8.58H7.2C6.70294 8.58 6.3 8.17706 6.3 7.68ZM6.3 10.56C6.3 10.0629 6.70294 9.66 7.2 9.66H16.8C17.2971 9.66 17.7 10.0629 17.7 10.56C17.7 11.0571 17.2971 11.46 16.8 11.46H7.2C6.70294 11.46 6.3 11.0571 6.3 10.56ZM6.3 13.44C6.3 12.9429 6.70294 12.54 7.2 12.54H14.88C15.3771 12.54 15.78 12.9429 15.78 13.44C15.78 13.9371 15.3771 14.34 14.88 14.34H7.2C6.70294 14.34 6.3 13.9371 6.3 13.44ZM2.4 15.42C2.89706 15.42 3.3 15.8229 3.3 16.32V18.32C3.3 19.1186 3.55412 19.6955 3.92917 20.0707C4.30419 20.4458 4.88095 20.7 5.67938 20.7H7.67938C8.17643 20.7 8.57938 21.1029 8.57938 21.6C8.57938 22.0971 8.17643 22.5 7.67938 22.5H5.67938C4.4858 22.5 3.42287 22.1102 2.6562 21.3433C1.88957 20.5765 1.5 19.5134 1.5 18.32V16.32C1.5 15.8229 1.90294 15.42 2.4 15.42ZM6.3 16.32C6.3 15.8229 6.70294 15.42 7.2 15.42H16.8C17.2971 15.42 17.7 15.8229 17.7 16.32C17.7 16.8171 17.2971 17.22 16.8 17.22H7.2C6.70294 17.22 6.3 16.8171 6.3 16.32ZM21.6 16.2199C22.0971 16.2199 22.5 16.6229 22.5 17.1199V18.3199C22.5 19.5134 22.1104 20.5764 21.3438 21.3433C20.5771 22.1102 19.5142 22.5 18.3206 22.5H17.1206C16.6236 22.5 16.2206 22.0971 16.2206 21.6C16.2206 21.1029 16.6236 20.7 17.1206 20.7H18.3206C19.119 20.7 19.6958 20.4458 20.0708 20.0707C20.4459 19.6955 20.7 19.1185 20.7 18.3199V17.1199C20.7 16.6229 21.1029 16.2199 21.6 16.2199Z" fill="#758195"/>
</svg>
